<svg xmlns="http://www.w3.org/2000/svg" width="24.615" height="20" viewBox="0 0 24.615 20"><path d="M4.615,50.308A2.308,2.308,0,1,1,2.308,48,2.308,2.308,0,0,1,4.615,50.308ZM2.308,55.692A2.308,2.308,0,1,0,4.615,58,2.308,2.308,0,0,0,2.308,55.692Zm0,7.692a2.308,2.308,0,1,0,2.308,2.308A2.308,2.308,0,0,0,2.308,63.385ZM6.923,52.038H23.846a.769.769,0,0,0,.769-.769V49.346a.769.769,0,0,0-.769-.769H6.923a.769.769,0,0,0-.769.769v1.923A.769.769,0,0,0,6.923,52.038Zm0,7.692H23.846a.769.769,0,0,0,.769-.769V57.038a.769.769,0,0,0-.769-.769H6.923a.769.769,0,0,0-.769.769v1.923A.769.769,0,0,0,6.923,59.731Zm0,7.692H23.846a.769.769,0,0,0,.769-.769V64.731a.769.769,0,0,0-.769-.769H6.923a.769.769,0,0,0-.769.769v1.923A.769.769,0,0,0,6.923,67.423Z" transform="translate(0 -48)" fill="#fff"/></svg>