<svg xmlns="http://www.w3.org/2000/svg" width="18" height="18.003" viewBox="0 0 18 18.003">
  <path id="search-plus" d="M10.688,6.75V7.875a.423.423,0,0,1-.422.422H8.3v1.969a.423.423,0,0,1-.422.422H6.75a.423.423,0,0,1-.422-.422V8.3H4.36a.423.423,0,0,1-.422-.422V6.75a.423.423,0,0,1,.422-.422H6.328V4.36a.423.423,0,0,1,.422-.422H7.875A.423.423,0,0,1,8.3,4.36V6.328h1.969A.423.423,0,0,1,10.688,6.75ZM17.755,16.76l-.995.995a.84.84,0,0,1-1.192,0L12.059,14.25a.843.843,0,0,1-.246-.6v-.573a7.31,7.31,0,1,1,1.266-1.266h.573a.843.843,0,0,1,.6.246l3.505,3.505A.851.851,0,0,1,17.755,16.76Zm-5.66-9.447a4.781,4.781,0,1,0-4.781,4.781A4.777,4.777,0,0,0,12.094,7.313Z" fill="#4d4d4d"/>
</svg>
