<svg xmlns="http://www.w3.org/2000/svg" width="24.75" height="16.5" viewBox="0 0 24.75 16.5">
  <path id="newspaper" d="M23.719,64H3.781A1.031,1.031,0,0,0,2.75,65.031v.344H1.031A1.031,1.031,0,0,0,0,66.406V78.094A2.406,2.406,0,0,0,2.406,80.5H22.688a2.062,2.062,0,0,0,2.063-2.062V65.031A1.031,1.031,0,0,0,23.719,64ZM2.406,78.438a.344.344,0,0,1-.344-.344V67.438H2.75V78.094A.344.344,0,0,1,2.406,78.438Zm10.141-.687H6.016a.516.516,0,0,1-.516-.516v-.344a.516.516,0,0,1,.516-.516h6.531a.516.516,0,0,1,.516.516v.344A.516.516,0,0,1,12.547,77.75Zm8.938,0H14.953a.516.516,0,0,1-.516-.516v-.344a.516.516,0,0,1,.516-.516h6.531a.516.516,0,0,1,.516.516v.344A.516.516,0,0,1,21.484,77.75Zm-8.937-4.125H6.016a.516.516,0,0,1-.516-.516v-.344a.516.516,0,0,1,.516-.516h6.531a.516.516,0,0,1,.516.516v.344A.516.516,0,0,1,12.547,73.625Zm8.938,0H14.953a.516.516,0,0,1-.516-.516v-.344a.516.516,0,0,1,.516-.516h6.531a.516.516,0,0,1,.516.516v.344A.516.516,0,0,1,21.484,73.625Zm0-4.125H6.016a.516.516,0,0,1-.516-.516V67.266a.516.516,0,0,1,.516-.516H21.484a.516.516,0,0,1,.516.516v1.719A.516.516,0,0,1,21.484,69.5Z" transform="translate(0 -64)" fill="#fff"/>
</svg>
